<svg width="24" height="25" viewBox="0 0 24 25" fill="none" xmlns="http://www.w3.org/2000/svg">
<path fill-rule="evenodd" clip-rule="evenodd" d="M16.5284 6.3739C16.5097 6.2932 16.4903 6.21232 16.47 6.13136C16.206 5.07528 15.7903 3.92773 15.1124 3.0239C14.4134 2.09192 13.3928 1.3739 11.9999 1.3739C10.607 1.3739 9.58642 2.09192 8.88743 3.0239C8.20956 3.92773 7.79381 5.07528 7.52979 6.13137C7.50955 6.21232 7.4901 6.2932 7.47139 6.3739H5.87104C4.29165 6.3739 2.98275 7.59845 2.87769 9.17434L2.14435 20.1743C2.02892 21.9059 3.40232 23.3739 5.13771 23.3739H18.8621C20.5975 23.3739 21.9709 21.9059 21.8555 20.1743L21.1221 9.17434C21.0171 7.59845 19.7082 6.3739 18.1288 6.3739H16.5284ZM7.47139 14.8739C8.04437 14.8739 8.998 10.9423 8.99995 10.3721C9.0001 10.3483 9.00038 10.3245 9.00078 10.3007C9.00166 10.248 9.00345 10.1685 9.00712 10.0658C9.01445 9.86042 9.02924 9.56389 9.05899 9.20694C9.08009 8.95366 9.10852 8.67252 9.14668 8.3739H14.8532C14.8913 8.67252 14.9197 8.95366 14.9409 9.20695C14.9706 9.56389 14.9854 9.86042 14.9927 10.0658C14.9964 10.1685 14.9982 10.248 14.9991 10.3007C14.9995 10.3252 14.9998 10.3498 14.9999 10.3743C14.9999 10.3743 15.47 14.8739 16.47 14.8739C17.47 14.8739 16.9999 10.3726 16.9999 10.3726C16.9998 10.3375 16.9994 10.3024 16.9988 10.2674C16.9977 10.2029 16.9956 10.1106 16.9914 9.99446C16.9832 9.76238 16.9667 9.43391 16.9339 9.04085C16.9169 8.83592 16.8952 8.61202 16.8678 8.3739H18.1288C18.6553 8.3739 19.0916 8.78208 19.1266 9.30738L19.8599 20.3074C19.8984 20.8846 19.4406 21.3739 18.8621 21.3739H5.13771C4.55925 21.3739 4.10145 20.8846 4.13992 20.3074L4.87326 9.30738C4.90828 8.78208 5.34458 8.3739 5.87104 8.3739H7.13202C7.10459 8.61202 7.08297 8.83592 7.06589 9.04086C7.03314 9.43391 7.01668 9.76238 7.00839 9.99446C7.00424 10.1106 7.00213 10.2029 7.00106 10.2674C7.00048 10.3018 7.00005 10.3361 6.99994 10.3705C6.99918 10.9411 6.89972 14.8739 7.47139 14.8739ZM9.53346 6.3739H14.4664C14.2352 5.52712 13.9209 4.76856 13.5124 4.2239C13.0864 3.65588 12.607 3.3739 11.9999 3.3739C11.3928 3.3739 10.9134 3.65588 10.4874 4.2239C10.0789 4.76856 9.76466 5.52712 9.53346 6.3739Z" fill="#0F0F0F"/>
</svg>
