<svg width="24" height="22" viewBox="0 0 24 22" fill="none" xmlns="http://www.w3.org/2000/svg">
<path fill-rule="evenodd" clip-rule="evenodd" d="M3.48883 5.37777C2.76317 6.62177 2.52434 8.34793 2.9702 10.1314C3.13065 10.7731 3.59709 11.5982 4.33633 12.5479C5.06122 13.4791 5.98646 14.4526 6.96642 15.3866C8.90951 17.2387 11.0007 18.8724 12.0001 19.6279C12.9995 18.8724 15.0906 17.2387 17.0337 15.3866C18.0137 14.4526 18.9389 13.4791 19.6638 12.5479C20.4031 11.5982 20.8695 10.7731 21.03 10.1314C21.4758 8.34793 21.237 6.62177 20.5113 5.37777C19.803 4.16355 18.6203 3.3739 17.0001 3.3739C15.5905 3.3739 14.597 4.41618 13.8945 5.82111C13.557 6.49618 13.3276 7.18135 13.1824 7.70405C13.1103 7.96349 13.0603 8.17825 13.0287 8.32562C12.9168 8.84782 12.3144 8.8739 12.0001 8.8739C11.6858 8.8739 11.0824 8.84295 10.9715 8.32562C10.9399 8.17826 10.8899 7.96349 10.8178 7.70405C10.6726 7.18135 10.4432 6.49619 10.1057 5.82112C9.40314 4.41618 8.40962 3.3739 7.00004 3.3739C5.37985 3.3739 4.19712 4.16355 3.48883 5.37777ZM12.0001 5.14401C12.0342 5.07174 12.0694 4.99925 12.1057 4.92669C12.9032 3.33162 15.4096 0.373901 18 0.373901C20.3798 0.373901 21.1972 2.58425 22.2389 4.37003C23.2632 6.12602 23.5244 8.39987 22.9702 10.6164C22.7077 11.6666 22.0355 12.7571 21.242 13.7764C20.4342 14.8141 19.4328 15.863 18.4136 16.8344C16.3743 18.7781 14.1958 20.4761 13.1811 21.2422C12.4804 21.7713 11.5198 21.7713 10.8191 21.2422C9.80439 20.4761 7.62589 18.7781 5.58654 16.8344C4.56739 15.863 3.56592 14.8141 2.75812 13.7764C1.96467 12.7571 1.29246 11.6666 1.02992 10.6164C0.475774 8.39987 0.736944 6.12603 1.76127 4.37003C2.80297 2.58425 4.12019 0.373901 6.5 0.373901C9.0904 0.373901 11.097 3.33162 11.8945 4.92668C11.9308 4.99925 11.966 5.07174 12.0001 5.14401Z" fill="#0F0F0F"/>
</svg>
