<svg width="120" height="48" viewBox="0 0 120 48" fill="none" xmlns="http://www.w3.org/2000/svg">
<path fill-rule="evenodd" clip-rule="evenodd" d="M4.8715 1.12474L2.59963 1.00733L1.66317 0.819976L1.47588 0.468374C1.47588 0.140512 1.70999 0 2.17886 0H25.6717C36.6802 0 44.4092 3.35048 48.9067 10.0745C51.4833 13.964 52.7712 18.5797 52.7712 23.9218C52.7712 26.7102 52.3498 29.4043 51.4826 32.0047C50.4994 34.7463 49.1409 37.1601 47.384 39.3159C45.463 41.5878 43.1212 43.3458 40.4273 44.6342C37.5461 45.9463 34.3141 46.6257 30.6837 46.6257H0.726074C0.234114 46.6257 0 46.4615 0 46.1811C0 45.8763 0.351492 45.7127 1.00701 45.7127L6.74569 45.3618C7.63597 45.2437 8.26839 44.9858 8.57306 44.6348L9.15867 43.8142C9.36969 43.2528 9.48707 42.4097 9.51016 41.2612V4.10052C9.51016 2.64792 8.69044 1.75737 7.09782 1.40577L4.8715 1.12474ZM17.5201 1.75737L17.3559 2.69476V43.9547C17.3559 44.4231 17.4495 44.7503 17.6368 44.8684L18.5739 45.0089H21.6655L28.8326 44.7509C30.753 44.5405 32.3924 44.2357 33.681 43.8136C34.9689 43.3458 36.187 42.6657 37.2408 41.8464C38.1779 41.0732 39.1381 39.9716 40.1926 38.5658C41.9487 36.2702 43.2136 33.3412 43.9865 29.7565C44.4547 27.4147 44.6895 25.1414 44.6895 22.9625C44.6895 21.0416 44.4085 18.9794 43.8229 16.7537C43.0032 13.5437 41.7615 10.7322 40.0046 8.3422C36.6084 3.70337 31.0339 1.40705 23.328 1.40705H18.5733C18.0351 1.35893 17.6836 1.47634 17.5201 1.75737ZM57.3849 46.2741C57.3381 45.9925 57.5722 45.8757 58.0879 45.8757L59.7273 45.8282C60.6176 45.7114 61.1564 45.4073 61.3667 44.9383L61.6714 43.2515V29.6385C61.6714 29.1233 61.4835 28.7248 61.1326 28.4906L59.9146 28.3726L58.2752 28.8185L57.3849 28.771C57.2675 28.49 57.619 28.2321 58.4387 27.9979C60.3828 27.4827 62.0935 26.8263 63.545 26.0063C64.4346 25.4911 65.067 25.2095 65.348 25.0927L66.0509 25.0227C66.2851 25.0689 66.4031 25.538 66.4031 26.381V43.5312C66.4031 44.3506 66.5897 44.937 66.9419 45.288C67.3626 45.7102 68.3472 45.9206 69.8693 45.9206C70.408 45.9206 70.6883 46.0386 70.7364 46.2953C70.7364 46.507 70.5722 46.577 70.2907 46.577H57.8063C57.5253 46.5789 57.3849 46.4608 57.3849 46.2741ZM112.661 29.4043C111.514 30.5996 110.741 32.0047 110.319 33.6915V43.6499C110.319 44.5399 110.624 45.1725 111.256 45.5709L112.686 45.8276L114.184 45.9918C114.536 46.0393 114.677 46.1099 114.677 46.2966L114.607 46.4608L114.209 46.5789H101.677C101.303 46.5789 101.092 46.4608 101.092 46.2741L101.443 45.9925L103.552 45.8282C104.371 45.6877 104.887 45.4073 105.168 44.9851L105.52 43.931V29.8733L105.285 28.8422L104.888 28.6081C104.77 28.4913 104.583 28.4214 104.301 28.3739C103.95 28.3514 103.528 28.4214 103.084 28.6081L101.89 28.9366L101.21 28.7723C101.093 28.6081 101.14 28.4913 101.303 28.4213L102.31 27.9992C104.605 27.3197 106.456 26.6171 107.745 25.8915L109.337 25.024L110.04 25.0702L110.321 25.6567V30.8107C112.078 27.9523 113.483 26.1956 114.444 25.6092C115.029 25.2582 115.591 24.9766 116.013 24.8598L116.833 24.7898C117.348 24.7424 117.934 24.9066 118.589 25.3288C119.48 25.844 119.948 26.6171 119.994 27.6007C120.041 28.4214 119.806 29.0546 119.291 29.5455C118.823 29.9439 118.354 30.0619 117.933 29.9439C117.535 29.874 117.23 29.7097 117.02 29.4755L116.364 28.6562C115.849 27.9055 115.357 27.6713 114.772 27.883C114.09 28.0685 113.388 28.585 112.661 29.4043ZM63.7092 10.1451C62.842 10.1451 62.1396 10.4499 61.5547 11.0357C60.9222 11.6215 60.6176 12.3709 60.6638 13.2383C60.6176 14.0583 60.9216 14.7615 61.5547 15.3473C62.1396 15.9331 62.8426 16.2372 63.7092 16.2372C64.5282 16.2372 65.255 15.9324 65.8399 15.3473C66.4249 14.7615 66.7533 14.0589 66.7533 13.2383C66.7533 12.3709 66.4249 11.6215 65.8399 11.0357C65.255 10.4499 64.5282 10.1451 63.7092 10.1451ZM76.123 28.8416C76.9658 27.7175 78.0209 26.7801 79.2851 26.0307C80.4102 25.3744 81.5339 24.9528 82.7051 24.7411L87.0385 24.4844C88.6067 24.5544 90.0601 24.8591 91.3718 25.4443C94.534 26.85 96.5242 29.428 97.2734 33.1763C98.0463 36.9721 97.3914 40.1827 95.3293 42.7831C93.5731 44.9851 91.2538 46.3909 88.3264 46.9998C85.2586 47.6792 82.4011 47.4682 79.8239 46.4146C76.4738 45.0551 74.4374 42.3609 73.7806 38.4247C73.195 34.7001 73.9678 31.5364 76.123 28.8416ZM89.8478 27.7881C88.4194 26.1956 86.6158 25.4924 84.4369 25.6791C82.3299 25.8908 80.7135 27.0611 79.6591 29.2869C78.6995 31.3022 78.3474 33.7634 78.6995 36.668C78.9561 39.5501 79.8707 41.8457 81.3453 43.6031C82.9149 45.4541 84.6954 46.2273 86.6857 45.8763C88.7703 45.4779 90.2936 44.3525 91.3006 42.479C92.2839 40.558 92.6347 38.0744 92.4006 34.9112C92.1203 31.7481 91.3013 29.4043 89.8478 27.7881Z" fill="#1B1B1B"/>
<path fill-rule="evenodd" clip-rule="evenodd" d="M57.2208 28.8192V29.0533L56.7051 28.7248V28.8416L56.752 29.0533H56.6814C56.6814 29.0059 56.6814 28.8891 56.6814 28.7717V28.6074H56.7051L57.1734 28.9597V28.6074H57.267L57.2208 28.8192Z" fill="#1B1B1B"/>
<path fill-rule="evenodd" clip-rule="evenodd" d="M58.0872 28.6549H57.8062V28.8192H58.0404V28.8416H57.8062V29.0059H58.0872V29.054H57.7363V28.6074H58.0872V28.6549Z" fill="#1B1B1B"/>
<path fill-rule="evenodd" clip-rule="evenodd" d="M59.3758 28.6074H59.3996L59.1654 29.0533H59.0949L58.9076 28.7011L58.6966 29.0533H58.6728C58.5555 28.8416 58.4625 28.7011 58.4387 28.6074H58.5561L58.6966 28.9597L58.9076 28.6074H58.9775L59.1417 28.9597L59.329 28.6074H59.3758Z" fill="#1B1B1B"/>
<path fill-rule="evenodd" clip-rule="evenodd" d="M60.0313 28.8416L60.0781 29.054H59.9614V28.8897L59.7273 28.6074H59.844L60.0313 28.8416L60.2186 28.6074H60.3129L60.0313 28.8416Z" fill="#1B1B1B"/>
<path fill-rule="evenodd" clip-rule="evenodd" d="M60.6874 28.7018C60.7335 28.6556 60.8516 28.6081 60.9683 28.6081C61.0863 28.6081 61.1562 28.6556 61.2499 28.7018C61.2723 28.7255 61.3198 28.7717 61.3198 28.8423L61.2499 29.0065C61.1562 29.054 61.0857 29.054 60.9683 29.054C60.8516 29.054 60.7342 29.054 60.6874 29.0065L60.5693 28.8423C60.57 28.7717 60.6174 28.7255 60.6874 28.7018ZM61.1562 28.7018L60.9683 28.6556L60.7816 28.7018C60.7342 28.7255 60.688 28.7717 60.688 28.8423C60.688 28.8898 60.7342 28.936 60.7816 28.9603L60.9683 29.054C61.0382 29.054 61.1325 29.0065 61.1562 28.9603C61.2024 28.9366 61.2499 28.8904 61.2499 28.8423C61.2499 28.7717 61.2024 28.7255 61.1562 28.7018Z" fill="#1B1B1B"/>
<path fill-rule="evenodd" clip-rule="evenodd" d="M61.8587 28.6549L61.835 28.8192H61.9049C62.0217 28.8192 62.0929 28.7717 62.0929 28.7255C62.0929 28.7017 62.0691 28.6555 61.9511 28.6555L61.8587 28.6549ZM61.9755 28.6074C62.0935 28.6074 62.1859 28.6549 62.1859 28.7255L62.0929 28.8192L61.9748 28.8416L62.2564 29.0533H62.1384L61.8575 28.8416H61.835L61.8587 29.0533H61.7407V28.6074H61.9755Z" fill="#1B1B1B"/>
<path fill-rule="evenodd" clip-rule="evenodd" d="M63.1467 28.6074L62.8427 28.8192L63.1467 29.054H63.0306L62.7722 28.8416V28.8192L62.7247 28.8416L62.7722 29.054H62.6548V28.6074H62.7722L62.7247 28.8192H62.7722L63.0768 28.6074H63.1467Z" fill="#1B1B1B"/>
</svg>
